<?xml version="1.0" encoding="UTF-8" standalone="no"?>
<svg
   xmlns:dc="http://purl.org/dc/elements/1.1/"
   xmlns:cc="http://creativecommons.org/ns#"
   xmlns:rdf="http://www.w3.org/1999/02/22-rdf-syntax-ns#"
   xmlns:svg="http://www.w3.org/2000/svg"
   xmlns="http://www.w3.org/2000/svg"
   xmlns:sodipodi="http://sodipodi.sourceforge.net/DTD/sodipodi-0.dtd"
   xmlns:inkscape="http://www.inkscape.org/namespaces/inkscape"
   width="525"
   height="310"
   viewBox="0 0 138.90625 82.020832"
   version="1.1"
   id="svg899"
   inkscape:version="1.0.1 (3bc2e813f5, 2020-09-07)"
   sodipodi:docname="cloud.svg">
  <title
     id="title1466">cloud</title>
  <defs
     id="defs893" />
  <sodipodi:namedview
     id="base"
     pagecolor="#ffffff"
     bordercolor="#666666"
     borderopacity="1.0"
     inkscape:pageopacity="0.0"
     inkscape:pageshadow="2"
     inkscape:zoom="0.45254834"
     inkscape:cx="268.54504"
     inkscape:cy="68.219002"
     inkscape:document-units="mm"
     inkscape:current-layer="layer1"
     inkscape:document-rotation="0"
     showgrid="false"
     inkscape:window-width="1366"
     inkscape:window-height="705"
     inkscape:window-x="-8"
     inkscape:window-y="-8"
     inkscape:window-maximized="1"
     inkscape:snap-grids="true"
     inkscape:snap-to-guides="true"
     units="px" />
  <metadata
     id="metadata896">
    <rdf:RDF>
      <cc:Work
         rdf:about="">
        <dc:format>image/svg+xml</dc:format>
        <dc:type
           rdf:resource="http://purl.org/dc/dcmitype/StillImage" />
        <dc:title>cloud</dc:title>
      </cc:Work>
    </rdf:RDF>
  </metadata>
  <g
     inkscape:label="Layer 1"
     inkscape:groupmode="layer"
     id="layer1">
    <path
       style="fill:#ffffff;fill-opacity:1;stroke:none;stroke-width:6.29899;stroke-opacity:1;opacity:0.99800004"
       id="path950"
       sodipodi:type="arc"
       sodipodi:cx="48.707481"
       sodipodi:cy="40.688801"
       sodipodi:rx="26.017017"
       sodipodi:ry="26.017017"
       sodipodi:start="0"
       sodipodi:end="6.156265"
       sodipodi:open="true"
       sodipodi:arc-type="arc"
       d="M 74.724499,40.688801 A 26.017017,26.017017 0 0 1 49.532865,66.692722 26.017017,26.017017 0 0 1 22.742834,42.338737 26.017017,26.017017 0 0 1 46.234654,14.789567 26.017017,26.017017 0 0 1 74.515229,37.395571" />
    <path
       style="fill:#ffffff;fill-opacity:1;stroke:none;stroke-width:7.43106;stroke-opacity:1;opacity:0.99800004"
       id="path950-4"
       sodipodi:type="arc"
       sodipodi:cx="84.955902"
       sodipodi:cy="31.919027"
       sodipodi:rx="30.986563"
       sodipodi:ry="30.401911"
       sodipodi:start="0"
       sodipodi:end="6.156265"
       sodipodi:open="true"
       sodipodi:arc-type="arc"
       d="M 115.94246,31.919027 A 30.986563,30.401911 0 0 1 85.938943,62.305635 30.986563,30.401911 0 0 1 54.031713,33.847043 30.986563,30.401911 0 0 1 82.010737,1.6547512 30.986563,30.401911 0 0 1 115.69322,28.070759" />
    <rect
       style="fill:#ffffff;fill-opacity:1;stroke:#ffffff;stroke-width:6.29899;stroke-opacity:1;opacity:0.99800004"
       id="rect973"
       width="87.113159"
       height="38.002384"
       x="25.669207"
       y="39.75634" />
    <path
       style="fill:#ffffff;fill-opacity:1;stroke:#ffffff;stroke-width:6.03639;stroke-opacity:1;opacity:0.99800004"
       id="path977"
       sodipodi:type="arc"
       sodipodi:cx="26.072506"
       sodipodi:cy="58.690304"
       sodipodi:rx="21.3398"
       sodipodi:ry="19.597588"
       sodipodi:start="0"
       sodipodi:end="6.156265"
       sodipodi:open="true"
       sodipodi:arc-type="arc"
       d="M 47.412306,58.690304 A 21.3398,19.597588 0 0 1 26.749506,78.278027 21.3398,19.597588 0 0 1 4.7756614,59.933135 21.3398,19.597588 0 0 1 24.044232,39.181438 21.3398,19.597588 0 0 1 47.240658,56.209645" />
    <path
       style="fill:#ffffff;fill-opacity:1;stroke:#ffffff;stroke-width:6.03639;stroke-opacity:1;opacity:0.99800004"
       id="path977-7"
       sodipodi:type="arc"
       sodipodi:cx="113.9818"
       sodipodi:cy="58.299065"
       sodipodi:rx="21.339802"
       sodipodi:ry="19.597588"
       sodipodi:start="0"
       sodipodi:end="6.2764374"
       sodipodi:arc-type="slice"
       d="M 135.3216,58.299065 A 21.339802,19.597588 0 0 1 114.0178,77.896624 21.339802,19.597588 0 0 1 92.642116,58.365186 21.339802,19.597588 0 0 1 113.8738,38.701728 21.339802,19.597588 0 0 1 135.32111,58.166823 l -21.33931,0.132242 z" />
  </g>
</svg>
