<svg id="e3ajl5bqpjcs1" xmlns="http://www.w3.org/2000/svg" xmlns:xlink="http://www.w3.org/1999/xlink" viewBox="0 0 303.110000 300" shape-rendering="geometricPrecision" text-rendering="geometricPrecision"><style><![CDATA[#e3ajl5bqpjcs3_tr {animation: e3ajl5bqpjcs3_tr__tr 4000ms linear infinite normal forwards}@keyframes e3ajl5bqpjcs3_tr__tr { 0% {transform: translate(151.555000px,150px) rotate(0deg)} 100% {transform: translate(151.555000px,150px) rotate(720deg)} }#e3ajl5bqpjcs3_ts {animation: e3ajl5bqpjcs3_ts__ts 4000ms linear infinite normal forwards}@keyframes e3ajl5bqpjcs3_ts__ts { 0% {transform: scale(1,1)} 50% {transform: scale(1.300000,1.300000)} 100% {transform: scale(1,1)} }]]></style><g id="e3ajl5bqpjcs2"><g id="e3ajl5bqpjcs3_tr" transform="translate(151.555000,150) rotate(0)"><g id="e3ajl5bqpjcs3_ts" transform="scale(1,1)"><g id="e3ajl5bqpjcs3" transform="translate(-97.410489,-96.608483)"><path id="e3ajl5bqpjcs4" d="M19.306104,69.025605L5.291675,111.195560L90.893368,171.601190L185.964320,112.715200L111.725690,23.056545Z" fill="rgb(241,140,170)" stroke="none" stroke-width="0.265537"/><path id="e3ajl5bqpjcs5" d="M112.107730,28.726190C112.107730,28.726190,134.786300,69.547620,129.872610,90.714286C124.958920,111.880950,145.747610,111.125000,145.747610,111.125000C145.747610,111.125000,166.914280,111.880950,180.143450,108.479170C180.143450,108.479170,194.884520,93.360118,191.482730,83.910715C191.482730,83.910715,199.420230,57.074405,172.961900,28.726191C172.961900,28.726191,152.929160,6.047619,125.714880,12.095238C125.714880,12.095238,105.682130,16.630951,112.107730,28.726190Z" fill="rgb(254,179,200)" stroke="none" stroke-width="0.264583"/><path id="e3ajl5bqpjcs6" d="M70.530356,82.020832C70.530356,82.020832,83.003570,78.997023,88.295237,57.452380C88.295237,57.452380,96.988694,42.711310,113.241660,25.324405C113.241660,25.324405,118.155350,16.630953,90.185119,2.267858C90.185119,2.267858,38.402381,-8.693452,13.455952,25.702381C13.455952,25.702381,-2.419048,55.940477,8.164285,71.059524C8.164285,71.059524,16.479760,94.872018,70.530356,82.020832Z" fill="rgb(254,179,200)" stroke="none" stroke-width="0.264583"/><path id="e3ajl5bqpjcs7" d="M74.688095,93.360118L90.563094,70.681547L105.682140,76.729165C105.682140,76.729165,113.997610,92.604168,108.705950,96.761908L106.438090,102.809530L89.051190,113.392860C89.051190,113.392860,75.066071,102.809530,68.262500,94.116068Z" fill="rgb(242,212,222)" stroke="none" stroke-width="0.264583"/><path id="e3ajl5bqpjcs8" d="M0.604762,113.014880C-0.529167,156.860120,25.551190,172.735120,25.551190,172.735120C56.545238,195.035720,92.452976,172.735120,92.452976,172.735120L87.539285,163.285720C81.113690,157.616070,80.357738,123.598220,80.357738,123.598220C77.711905,112.258930,61.836904,106.589290,61.836904,106.589290C26.685119,109.613100,16.857737,78.619046,16.857737,78.619046C16.857737,78.619046,2.116667,81.642851,0.604762,113.014880Z" fill="rgb(254,178,200)" stroke="none" stroke-width="0.264583"/><path id="e3ajl5bqpjcs9" d="M180.748210,103.036300C180.748210,103.036300,208.718440,129.872610,184.149990,164.268440C184.149990,164.268440,161.849400,196.396420,134.257140,192.238680C134.257140,192.238680,102.507140,193.372610,87.766071,165.024400C87.766071,165.024400,92.301785,164.646420,94.569643,133.274400C94.569643,133.274400,98.349403,113.241660,112.334520,118.911300C112.334520,118.911300,173.566660,128.738680,180.748210,103.036300Z" fill="rgb(254,179,200)" stroke="none" stroke-width="0.264583"/><path id="e3ajl5bqpjcs10" d="M31.474571,132.263810C31.474568,135.104276,26.579605,137.431817,20.416417,137.521930C14.253225,137.612043,9.047677,135.432181,8.656629,132.597430C8.265577,129.762680,12.830251,127.296827,18.968630,127.026850C25.107011,126.756873,30.602185,128.780279,31.382710,131.597900" transform="matrix(0.71594800000000 -0.69815400000000 0.72762300000000 0.68597800000000 -0.00000000000001 -0.00000000000003)" opacity="0.998" fill="rgb(119,97,103)" stroke="none" stroke-width="1.693590"/><path id="e3ajl5bqpjcs11" d="M134.977020,71.446205C134.977020,74.277062,130.712746,76.596729,125.343650,76.686535C119.974559,76.776342,115.439725,74.603857,115.099060,71.778701C114.758394,68.953544,118.734932,66.496035,124.082410,66.226972C129.429886,65.957910,134.217029,67.974467,134.896990,70.782551" transform="matrix(0.97187500000000 0.23549700000000 -0.14221600000000 0.98983600000000 0 -0.00000000000001)" opacity="0.998" fill="rgb(119,97,103)" stroke="none" stroke-width="1.578050"/><path id="e3ajl5bqpjcs12" d="M133.072510,-91.096992C133.072510,-88.266137,128.808241,-85.946472,123.439150,-85.856663C118.070056,-85.766853,113.535217,-87.939338,113.194550,-90.764496C112.853884,-93.589653,116.830422,-96.047162,122.177900,-96.316225C127.525379,-96.585290,132.312528,-94.568733,132.992490,-91.760647" transform="matrix(-0.01745000000000 0.99984800000000 -0.99699200000000 0.07750200000000 0 0)" opacity="0.998" fill="rgb(119,97,103)" stroke="none" stroke-width="1.578050"/><path id="e3ajl5bqpjcs13" d="M-39.932702,-102.409200C-39.932705,-99.578346,-44.196974,-97.258681,-49.566065,-97.168873C-54.935160,-97.079065,-59.469998,-99.251551,-59.810661,-102.076710C-60.151328,-104.901868,-56.174790,-107.359377,-50.827312,-107.628440C-45.479834,-107.897503,-40.692688,-105.880946,-40.012728,-103.072860" transform="matrix(-0.99087200000000 0.13480700000000 -0.22822000000000 -0.97361000000000 0 0)" opacity="0.998" fill="rgb(119,97,103)" stroke="none" stroke-width="1.578050"/><path id="e3ajl5bqpjcs14" d="M-78.233548,85.226479C-78.233549,88.057334,-82.497820,90.377000,-87.866912,90.466808C-93.236004,90.556616,-97.770841,88.384132,-98.111507,85.558975C-98.452173,82.733818,-94.475635,80.276309,-89.128158,80.007246C-83.780681,79.738183,-78.993535,81.754740,-78.313574,84.562825" transform="matrix(-0.10567400000000 -0.99440100000000 0.97988700000000 -0.19955400000000 -0.00000000000001 0)" opacity="0.998" fill="rgb(119,97,103)" stroke="none" stroke-width="1.578050"/><path id="e3ajl5bqpjcs15" d="M45.319228,137.216080C45.319227,140.450999,44.036346,143.101763,42.421085,143.204390C40.805825,143.307017,39.441546,140.824445,39.339057,137.596040C39.236569,134.367632,40.432888,131.559348,42.041646,131.251880C43.650404,130.944411,45.090590,133.248801,45.295153,136.457700" transform="matrix(0.72427100000000 -0.68951500000000 0.46034100000000 0.88774200000000 0 0)" opacity="0.998" fill="rgb(138,124,133)" stroke="none" stroke-width="1.467790"/><path id="e3ajl5bqpjcs16" d="M139.847570,30.768639C139.847570,34.003557,138.564690,36.654321,136.949430,36.756951C135.334168,36.859580,133.969887,34.377004,133.867400,31.148594C133.764913,27.920186,134.961232,25.111902,136.569990,24.804435C138.178749,24.496963,139.618937,26.801355,139.823500,30.010257" transform="matrix(0.84759400000000 0.53064600000000 -0.74584500000000 0.66611900000000 -0.00000000000003 -0.00000000000001)" opacity="0.998" fill="rgb(138,124,133)" stroke="none" stroke-width="1.467790"/></g></g></g></g></svg>